<svg width="65" height="99" viewBox="0 0 65 99" fill="none" xmlns="http://www.w3.org/2000/svg">
<g id="fishe" clip-path="url(#clip0_2_75)">
<path id="Vector" d="M24.2 67.14C26.59 67.57 28.46 67.37 31.73 66.73C38.21 65.26 39.9 62.4 38.37 59.49C36.96 56.98 32.92 58.47 30.88 59.33C28.84 60.19 25.58 61.8 24.21 67.14H24.2Z" fill="#002BFF"/>
<path id="Vector_2" d="M33.62 8.56C38.8 5.74 38.48 -0.300002 42.17 0.0099982C45.86 0.319998 42.8 7.7 42.8 7.7C42.8 7.7 45.94 2.05 47.9 2.91C49.86 3.77 49.08 6.6 49.08 6.6L40.76 28.49C36.95 42.61 24.91 64.66 21.46 73.84C18.01 83.02 21.15 96.78 30.41 93.22C37.55 89.38 34.57 79.65 40.22 68.82C45.87 57.99 63.64 59.99 64.82 69.41C65.41 75.53 64 75.18 57.64 87.89C61.82 74.24 61.17 66.17 48.05 69.41C48.05 69.41 56.23 69.45 57.33 77.14C58.43 84.83 49.64 92.44 40.62 94.72C52.8 83.12 51.11 78.09 47.17 76.71C42.82 75.18 39.91 78.2 39.52 83.65C39.13 89.1 37.99 101.53 20.57 98.13C3.15 94.73 5.66 68.51 7.1 58.61C7.44 56.28 7.74 54.86 7.74 54.86C7.74 54.86 12.29 27.63 21.79 16.96C25.4 12.8 28.46 11.39 33.64 8.56H33.62Z" fill="#22241E"/>
<path id="Vector_3" d="M0.0500016 56.03C-0.779998 49.91 9.94 44.73 9.94 44.73C8.8 49.8 7.78 54.64 7.07 58.88C7.07 58.88 0.760002 61.21 0.0600016 56.03H0.0500016Z" fill="#002BFF"/>
<path id="Vector_4" d="M37.97 28.22C37.97 28.22 49.5 20.45 52.09 23.75C54.68 27.05 51.38 31.52 43.62 31.52H35.85L37.97 28.22Z" fill="#002BFF"/>
<path id="Vector_5" d="M30.29 20.55C32.455 20.55 34.21 18.795 34.21 16.63C34.21 14.465 32.455 12.71 30.29 12.71C28.125 12.71 26.37 14.465 26.37 16.63C26.37 18.795 28.125 20.55 30.29 20.55Z" fill="#F8E060"/>
<path id="Vector_6" d="M30.23 19.28C31.677 19.28 32.85 18.107 32.85 16.66C32.85 15.213 31.677 14.04 30.23 14.04C28.783 14.04 27.61 15.213 27.61 16.66C27.61 18.107 28.783 19.28 30.23 19.28Z" fill="#22241E"/>
</g>
<defs>
<clipPath id="clip0_2_75">
<rect width="64.93" height="98.72" fill="white"/>
</clipPath>
</defs>
</svg>
