<svg width="487" height="485" viewBox="0 0 487 485" fill="none" xmlns="http://www.w3.org/2000/svg">
<g id="background-bar" clip-path="url(#clip0_2_2)">
<path id="Vector" d="M486.46 250.2H0V484.94H486.46V250.2Z" fill="#627651"/>
<path id="Vector_2" d="M486.48 224.22H0V250.76H486.48V224.22Z" fill="#869978"/>
<path id="Vector_3" d="M125.23 484.92H173.08L179.01 462.83L164.61 478.08L170.54 462.83L153.6 478.08L159.53 464.53L141.74 479.78C141.74 479.78 150.21 460.3 134.12 458.6C130.39 458.21 127.45 458.73 125.11 459.75C125.72 466.48 125.7 474.74 125.23 484.92Z" fill="#0C5E00"/>
<path id="Vector_4" d="M486.68 436.48C485.45 436.35 484.2 436.27 482.94 436.27C475.75 436.27 468.97 438.42 463.02 442.22C456.02 446.69 443.03 446.59 436.15 442.07C430.5 438.36 424.09 436.27 417.28 436.27C409.54 436.27 402.31 438.98 396.13 443.69C389.17 449 374.43 449 367.47 443.69C361.29 438.98 354.06 436.27 346.32 436.27C337.23 436.27 328.82 440.01 322.02 446.34C315.39 452.51 298.9 452.6 292.1 446.48C284.97 440.06 276.15 436.27 266.59 436.27C264.76 436.27 262.95 436.43 261.18 436.7V484.93H486.69V436.48H486.68Z" fill="#0C5E00"/>
<path id="Vector_5" d="M486.48 188.96H0V224.5H486.48V188.96Z" fill="#F3FF00"/>
<path id="Vector_6" d="M486.48 0H0V69.49H486.48V0Z" fill="#F3FF00"/>
<path id="Vector_7" d="M486.48 179.13H0V188.93H486.48V179.13Z" fill="#627651"/>
<path id="Vector_8" d="M486.48 69.01H0V79.23H486.48V69.01Z" fill="#627651"/>
<path id="Vector_9" d="M53.84 221.59H48.35C48.35 222.55 46.54 223.55 45.21 224.57L51.12 224.61C52.7 224.61 54.02 223.46 53.85 221.6L53.84 221.59Z" fill="#486CAB"/>
<path id="Vector_10" d="M38.31 218.48C38.31 218.48 38.89 214.62 42.36 214.62C43.68 214.62 45.52 224.6 51.11 224.6C43.86 224.6 42.17 224.6 42.17 224.6C40.05 224.6 39.74 219.4 38.31 218.48Z" fill="#80CCFF"/>
<path id="Vector_11" d="M31.06 214.81L27.48 218.2C27.48 218.2 28.23 224.47 32.37 224.47C36.51 224.47 38.88 214.62 42.35 214.62C38.77 214.62 31.06 214.81 31.06 214.81Z" fill="#486CAB"/>
<path id="Vector_12" d="M11.95 212.83H26.35C26.35 212.83 27.57 224.47 32.37 224.47C27.01 224.47 19.66 224.47 19.66 224.47C15.8 224.47 13.26 212.83 11.94 212.83H11.95Z" fill="#80CCFF"/>
<path id="Vector_13" d="M269.9 311.33C269.48 307.38 264.25 308.37 264.25 308.37C264.25 308.37 258.89 310.21 256.2 306.25C254.65 303.97 254.05 302.25 253.81 301.21C258.04 300 261 297.2 261 293.94C261 289.57 255.69 286.03 249.14 286.03C242.59 286.03 237.28 289.57 237.28 293.94C237.28 297.03 239.95 299.71 243.84 301C243.64 302.02 243.06 303.81 241.4 306.25C238.72 310.2 233.35 308.37 233.35 308.37C233.35 308.37 228.13 307.38 227.7 311.33C227.28 315.28 231.23 315.99 232.64 316.13C243.05 316.92 246.08 309.23 247.58 301.77C248.09 301.81 248.6 301.84 249.12 301.84C249.41 301.84 249.7 301.82 249.99 301.81C251.5 309.25 254.54 316.92 264.93 316.13C266.34 315.99 270.29 315.28 269.87 311.33H269.9Z" fill="#232620"/>
<path id="Vector_14" d="M253.83 296.55C255.465 296.55 256.79 295.225 256.79 293.59C256.79 291.955 255.465 290.63 253.83 290.63C252.195 290.63 250.87 291.955 250.87 293.59C250.87 295.225 252.195 296.55 253.83 296.55Z" fill="#E0E7EE"/>
<path id="Vector_15" d="M253.8 294.06C254.34 294.57 254.93 295.03 255.45 295.29C255.45 295.29 255.13 294.43 254.33 293.53C254.83 293 255.27 292.43 255.51 291.92C255.51 291.92 254.68 292.23 253.8 293C253.34 292.59 252.77 292.2 252.08 291.92C252.25 292.32 252.71 292.93 253.26 293.53C252.83 294 252.43 294.58 252.14 295.29C252.55 295.11 253.18 294.64 253.79 294.06H253.8Z" fill="#232620"/>
<path id="Vector_16" d="M244.11 296.6C245.745 296.6 247.07 295.275 247.07 293.64C247.07 292.005 245.745 290.68 244.11 290.68C242.475 290.68 241.15 292.005 241.15 293.64C241.15 295.275 242.475 296.6 244.11 296.6Z" fill="#E0E7EE"/>
<path id="Vector_17" d="M244.08 294.11C244.62 294.62 245.21 295.08 245.73 295.34C245.73 295.34 245.41 294.48 244.61 293.58C245.11 293.05 245.55 292.48 245.79 291.97C245.79 291.97 244.96 292.28 244.08 293.05C243.62 292.64 243.05 292.25 242.36 291.97C242.53 292.37 242.99 292.98 243.54 293.58C243.11 294.05 242.71 294.63 242.42 295.34C242.83 295.16 243.46 294.69 244.07 294.11H244.08Z" fill="#232620"/>
<path id="Vector_18" d="M80.98 392.41L92.65 389.4L71.56 378.48L37.17 375.53L9.78 308.97L27.67 294.24L37.55 275.61L22.59 283.51L23.44 264.6L13.84 279.84L12.42 260.36L2.82 276.17L0 256.9V484.94H64.38L53.13 426.84L73.45 428.55L87.38 422.9L76.84 418.39L88.13 415L77.96 409.73L89.26 405.96L80.22 400.69L91.14 397.68L80.98 392.41Z" fill="#869978"/>
</g>
<defs>
<clipPath id="clip0_2_2">
<rect width="486.68" height="484.94" fill="white"/>
</clipPath>
</defs>
</svg>
