<svg width="138" height="103" viewBox="0 0 138 103" fill="none" xmlns="http://www.w3.org/2000/svg">
<g id="caraffa" clip-path="url(#clip0_2_69)">
<path id="Vector" d="M136.48 35.13C136.02 32.7 133.89 30.96 131.42 30.96H83.5C80.88 30.96 78.76 28.84 78.76 26.22V18.27H40.92V26C40.92 28.66 39.13 31.01 36.54 31.64C15.1 36.82 0 49.25 0 63.76C0 79.38 17.5 92.59 41.56 96.94C41.16 97.51 40.92 98.2 40.92 98.94C40.92 100.86 42.48 102.42 44.4 102.42H75.84C77.76 102.42 79.32 100.86 79.32 98.94C79.32 97.98 78.93 97.12 78.31 96.49C98.24 92.35 113.25 82.05 116.78 69.46C123.89 67.41 129.29 63.93 132.89 59.02C138.47 51.42 137.57 40.89 136.48 35.13ZM126.03 53.98C124.03 56.71 121.1 58.83 117.28 60.34C115.94 52.24 109.88 44.95 100.74 39.46H127.86C128.5 39.46 129.04 39.94 129.11 40.58C129.48 44.18 129.28 49.56 126.03 53.99V53.98Z" fill="#80CCFF"/>
<path id="Vector_2" d="M38.48 29.02C46.4937 29.02 52.99 22.5237 52.99 14.51C52.99 6.49635 46.4937 0 38.48 0C30.4663 0 23.97 6.49635 23.97 14.51C23.97 22.5237 30.4663 29.02 38.48 29.02Z" fill="#D65551"/>
<path id="Vector_3" d="M48.26 17.73L40.21 14.98C40.21 14.98 42.58 14.74 47.69 15.37C50.33 15.7 51.22 14.5 51.22 12.99C51.22 11.48 50.28 11.2 49.34 11.06C46.28 10.78 43.56 13.13 40.14 13.6C47.98 10.46 49.12 5.79 46.61 4.66C42.34 3.04 41.8 9.12 39.36 12.75C39.5 9.79 40.98 6.02 40.9 4.42C40.82 2.82 39.55 1.27 37.05 1.69C33.05 2.25 34.98 8.94 37.9 12.94C37.9 12.94 34.44 8.71 32.01 7.23C30.68 6.14 28.73 6.34 27.64 7.66C26.55 8.99 26.67 11.05 28.07 12.03C29.52 13.03 34.26 13.74 37.33 14.11C33.21 14.91 23.47 13.28 26.65 19.62C28.87 24.06 37.9 14.96 37.9 14.96L31.81 21.92C31.81 21.92 29.52 24.53 33.01 26.16C36.5 27.78 37.39 23.62 37.39 23.62L38.84 15.71C38.84 15.71 39.58 22.91 39.79 23.69C40 24.47 40.25 26.02 42.19 25.88C44.13 25.74 44.87 24.54 44.1 22.7C43.33 20.86 40.03 15.66 40.03 15.66L46.25 21.11C46.25 21.11 47.7 22.66 49.53 20.58C51.37 18.5 48.26 17.72 48.26 17.72V17.73Z" fill="white"/>
<path id="Vector_4" d="M26.82 42.65C29.08 44.53 32.84 50.93 25.69 55.83C18.54 60.72 14.58 69.76 22.11 79.74C22.11 79.74 29.8 89.5 44.21 95.35C24.44 93.68 -5.83 72.02 10.84 48.6C18.07 38.45 24.56 40.78 26.82 42.66V42.65Z" fill="white"/>
<path id="Vector_5" d="M40.65 56.46C42.2 57.83 44.79 62.48 39.87 66.04C27.1 75.3 39.97 90.81 49.88 95.07C36.29 93.86 18.2 77.81 29.66 60.78C34.63 53.4 39.09 55.09 40.64 56.46H40.65Z" fill="white"/>
</g>
<defs>
<clipPath id="clip0_2_69">
<rect width="137.29" height="102.43" fill="white"/>
</clipPath>
</defs>
</svg>
