<svg width="127" height="197" viewBox="0 0 127 197" fill="none" xmlns="http://www.w3.org/2000/svg">
<g id="Ebene_3" clip-path="url(#clip0_0_3)">
<path id="Vector" d="M0.14 196.51H99.53C90.81 186.5 87.81 192.5 78.05 186.54C67.89 180.33 76.36 173.55 65.63 167.9C54.9 162.25 40.22 173.55 32.31 165.08C24.4 156.61 34 136.84 28.36 126.68C22.71 116.52 15.37 119.34 15.37 103.53C15.37 87.72 35.13 82.64 35.13 67.95C35.13 53.26 24.97 61.17 24.4 43.1C23.86 25.38 58.26 5.7 59.57 4.95C53.68 1.89 46.78 0.17 39.28 0C22.12 0.2 8.21 7.86 0.0599998 15.81C-0.11 19.15 0.14 196.51 0.14 196.51Z" fill="#FF6A36"/>
<path id="Vector_2" d="M125.8 171.34C123.21 143 109.28 141.79 69.4 138.16C19.71 133.64 36.65 96 36.65 96C47.19 105.79 63.45 113.99 73.2 105.94C86.24 92.9 72.41 73.42 90.1 64.38C73.16 60.62 82.19 36.52 76.17 22.59C72.81 14.82 66.99 8.82 59.57 4.96C58.26 5.71 23.86 25.39 24.41 43.11C24.97 61.18 35.14 53.27 35.14 67.96C35.14 82.65 15.38 87.72 15.38 103.54C15.38 119.36 22.72 116.53 28.37 126.69C34.02 136.85 24.42 156.62 32.32 165.09C40.23 173.56 54.91 162.27 65.64 167.91C76.37 173.56 67.9 180.33 78.06 186.55C87.82 192.51 90.82 186.51 99.54 196.52H125.93C126.4 186.34 126.42 178.08 125.81 171.35L125.8 171.34Z" fill="white"/>
<path id="Vector_3" d="M78.76 40.38C78.87 45 78.96 49.45 80.15 54.36C69.8 53.61 59.78 43.05 50.62 41.89C50.62 41.89 36.13 39.82 36.13 49.04C36.13 49.04 33.4 45.32 37.02 40.99C35.42 41.37 33.26 42.03 31.37 45.32C31.09 41.7 34.1 37.98 36.83 37.08C34.62 37.27 32.64 37.97 30.52 39.67C30.71 37.03 32.73 33.13 37.44 32.47C35.18 32.61 32.08 33.74 29.96 35.72C30.76 31.48 38.15 27.39 42.52 26.54C55.65 24.28 62.23 39.95 78.75 40.38H78.76Z" fill="#22241F"/>
<path id="Vector_4" d="M77.75 27.83C70.97 29.99 53.35 22.5 53.35 22.5L57.11 25.61C57.11 25.61 54.95 24.67 49.58 24.39C53.06 24.58 57.39 28.25 57.39 28.25C68.97 38.51 78.65 37.72 78.65 37.72C78.54 34.12 78.26 30.37 77.74 27.84L77.75 27.83Z" fill="#22241F"/>
<path id="Vector_5" d="M46.2 36.43C47.2935 36.43 48.18 35.5435 48.18 34.45C48.18 33.3565 47.2935 32.47 46.2 32.47C45.1065 32.47 44.22 33.3565 44.22 34.45C44.22 35.5435 45.1065 36.43 46.2 36.43Z" fill="white"/>
<path id="Vector_6" d="M48.71 39.9C49.1076 39.9 49.43 39.5776 49.43 39.18C49.43 38.7824 49.1076 38.46 48.71 38.46C48.3124 38.46 47.99 38.7824 47.99 39.18C47.99 39.5776 48.3124 39.9 48.71 39.9Z" fill="white"/>
<path id="Vector_7" d="M48.93 32.81C49.3276 32.81 49.65 32.4876 49.65 32.09C49.65 31.6924 49.3276 31.37 48.93 31.37C48.5324 31.37 48.21 31.6924 48.21 32.09C48.21 32.4876 48.5324 32.81 48.93 32.81Z" fill="white"/>
<path id="Vector_8" d="M60.2 37.44C60.5976 37.44 60.92 37.1176 60.92 36.72C60.92 36.3224 60.5976 36 60.2 36C59.8024 36 59.48 36.3224 59.48 36.72C59.48 37.1176 59.8024 37.44 60.2 37.44Z" fill="white"/>
<path id="Vector_9" d="M55.07 39.97C56.6219 39.97 57.88 38.7119 57.88 37.16C57.88 35.6081 56.6219 34.35 55.07 34.35C53.5181 34.35 52.26 35.6081 52.26 37.16C52.26 38.7119 53.5181 39.97 55.07 39.97Z" fill="white"/>
<path id="Vector_10" d="M63.93 37.29C63.81 39.14 62.36 40.94 59.85 41.25C62.53 41.07 63.41 42.13 63.9 44.57C64.28 42.83 65 41.01 67.65 40.82C65.74 40.94 64.01 39.63 63.92 37.29H63.93Z" fill="white"/>
<path id="Vector_11" d="M68.41 43.73C68.41 43.73 68.58 44.58 68.88 44.93C69.18 45.28 70.08 45.4 70.08 45.4C70.08 45.4 69.18 45.58 68.88 45.87C68.58 46.16 68.41 47.07 68.41 47.07C68.41 47.07 68.35 46.23 67.94 45.87C67.53 45.51 66.74 45.4 66.74 45.4C66.74 45.4 67.61 45.35 67.94 44.93C68.27 44.51 68.41 43.73 68.41 43.73Z" fill="white"/>
<path id="Vector_12" d="M74.66 42.77L74.87 44.03L75.69 43.04L75.24 44.24L76.44 43.8L75.46 44.61L76.71 44.82L75.46 45.04L76.44 45.85L75.24 45.4L75.69 46.6L74.87 45.62L74.66 46.88L74.45 45.62L73.64 46.6L74.08 45.4L72.88 45.85L73.87 45.04L72.61 44.82L73.87 44.61L72.88 43.8L74.08 44.24L73.64 43.04L74.45 44.03L74.66 42.77Z" fill="white"/>
<path id="Vector_13" d="M74.56 29.61C74.47 30.97 73.41 32.29 71.56 32.52C73.53 32.38 74.18 33.17 74.54 34.96C74.82 33.68 75.35 32.34 77.3 32.2C75.89 32.29 74.62 31.33 74.56 29.61Z" fill="white"/>
<path id="Vector_14" d="M69.19 29.03L69.36 30.04L70.01 29.25L69.66 30.21L70.62 29.85L69.83 30.51L70.84 30.68L69.83 30.85L70.62 31.5L69.66 31.14L70.01 32.1L69.36 31.31L69.19 32.32L69.02 31.31L68.37 32.1L68.73 31.14L67.77 31.5L68.55 30.85L67.54 30.68L68.55 30.51L67.77 29.85L68.73 30.21L68.37 29.25L69.02 30.04L69.19 29.03Z" fill="white"/>
<path id="Vector_15" d="M61.96 28.49C62.3576 28.49 62.68 28.1676 62.68 27.77C62.68 27.3724 62.3576 27.05 61.96 27.05C61.5624 27.05 61.24 27.3724 61.24 27.77C61.24 28.1676 61.5624 28.49 61.96 28.49Z" fill="white"/>
<path id="Vector_16" d="M64.4 31.3C64.9357 31.3 65.37 30.8657 65.37 30.33C65.37 29.7943 64.9357 29.36 64.4 29.36C63.8643 29.36 63.43 29.7943 63.43 30.33C63.43 30.8657 63.8643 31.3 64.4 31.3Z" fill="white"/>
<path id="Vector_17" d="M27.92 196.49C23.68 189.53 9.19 193.1 12.77 174.84C13.52 169.95 20.41 154.39 0.0800018 141.4V196.55L27.93 196.48L27.92 196.49Z" fill="#CB0030"/>
<path id="Vector_18" d="M0.790001 135.22C0.790001 135.22 18.72 150.47 18.3 164.02C17.88 177.57 18.72 180.4 22.68 183.64C26.64 186.88 39.2 191.83 42.02 196.06C36.23 187.02 25.22 182.37 23.53 164.86C21.84 147.35 10.68 139.17 0.800001 135.21L0.790001 135.22Z" fill="#CB0030"/>
<path id="Vector_19" d="M23.99 134.27C23.99 134.27 18.48 135.4 22.3 145.14C26.12 154.88 27.95 172.67 36.42 178.46C44.89 184.25 44.61 178.04 49.97 180.86C55.33 183.68 52.79 190.46 57.88 193C62.97 195.54 61.97 192.29 67.9 196.53H76.79C76.79 196.53 72.27 191.02 63.1 190.18C53.93 189.34 59.15 173.24 42.49 175.5C24.39 177.95 29.08 141.34 29.08 141.34C29.08 141.34 29.93 134 24 134.28L23.99 134.27Z" fill="#CB0030"/>
<path id="Vector_20" d="M8.03 121.13L20.31 146.82C20.31 146.82 2.25 133.55 0.27 126.64V103.91C0.27 103.91 2.53 107.44 3.09 110.12C2.67 103.63 5.77 94.31 14.81 89.79C9.73 96.85 3.52 110.68 13.26 123.81C11.71 123.81 9.17 122.4 8.04 121.13H8.03Z" fill="#CB0030"/>
<path id="Vector_21" d="M9.68 71.67C8.83 82.96 0.0299986 83.98 0.0299986 95.27V67.36C0.0299986 67.36 3.25 62.17 -1.39579e-06 45.79C-1.39579e-06 35.49 -0.0600033 23.67 18.72 16.75C5.59 24.38 3.75 32.99 3.75 38.78C3.75 50.4 10.81 55.02 9.68 71.67Z" fill="#CB0030"/>
<path id="Vector_22" d="M46.48 0.660004C47.8 0.850004 51.61 1.7 52.88 2.21C40.88 11.1 24.88 25.79 22.06 33.13C25.59 23.81 41.82 4.33 46.48 0.660004Z" fill="#CB0030"/>
</g>
<defs>
<clipPath id="clip0_0_3">
<rect width="126.27" height="196.56" fill="white"/>
</clipPath>
</defs>
</svg>
