<svg width="67" height="186" viewBox="0 0 67 186" fill="none" xmlns="http://www.w3.org/2000/svg">
<path d="M56 47.67C48.52 42.59 40.89 37.36 40.89 37.36C40.89 34.85 40.94 31.74 41 28.27H25.14C25.2 31.74 25.25 34.85 25.25 37.36C25.25 37.36 17.63 42.58 10.14 47.67C-2.55 55.15 0.130002 59.53 0.460002 73.02L2.59 103.35L33.59 71.15L63.64 102.37L65.7 73.02C66.03 59.53 68.71 55.15 56.01 47.67H56Z" fill="#22241E"/>
<path d="M4.03 123.75L8.39 185.75L57.8 185.74L62.06 124.97L33.59 156.93L4.03 123.75Z" fill="#22241E"/>
<path d="M2.59 103.35L4.03 123.75L33.59 156.93L62.06 124.97L63.64 102.37L33.59 71.15L2.59 103.35Z" fill="#CB0030"/>
<path d="M41.22 0H24.92C24.87 2.93 24.86 5.91 24.87 8.88H41.26C41.26 5.91 41.26 2.92 41.21 0H41.22Z" fill="#CB0030"/>
<path d="M41.26 11.14H24.89C24.93 17.22 25.05 23.15 25.15 28.27H41.01C41.1 23.15 41.22 17.22 41.27 11.14H41.26Z" fill="#CB0030"/>
<path d="M41.27 8.88H24.88C24.88 9.63 24.88 10.39 24.88 11.14H41.25C41.25 10.39 41.25 9.64 41.25 8.88H41.27Z" fill="#22241E"/>
</svg>
