<svg width="487" height="102" viewBox="0 0 487 102" fill="none" xmlns="http://www.w3.org/2000/svg">
<g id="mirrors" clip-path="url(#clip0_2_21)">
<path id="Vector" d="M486.48 0.379997H0V100.7H486.48V0.379997Z" fill="#FFABFF"/>
<path id="Vector_2" d="M89.93 98.75C89.93 94.46 87.78 90.5 84.15 87.31C80.69 84.26 80.73 76.86 84.23 73.89C87.81 70.84 89.93 67.07 89.93 62.99C89.93 59.52 88.4 56.27 85.73 53.5C82.73 50.38 82.73 43.76 85.73 40.64C88.39 37.87 89.93 34.62 89.93 31.15C89.93 28.1 88.74 25.22 86.65 22.68C84.1 19.59 84.04 13.76 86.57 10.62C88.72 7.95 89.94 4.91 89.94 1.68C89.94 1.11 89.89 0.56 89.82 0H31.18C31.11 0.55 31.06 1.11 31.06 1.68C31.06 4.91 32.28 7.95 34.43 10.62C36.96 13.76 36.9 19.59 34.35 22.68C32.25 25.21 31.07 28.09 31.07 31.15C31.07 34.62 32.6 37.87 35.27 40.64C38.27 43.76 38.27 50.38 35.27 53.5C32.61 56.27 31.07 59.52 31.07 62.99C31.07 67.07 33.19 70.84 36.77 73.89C40.26 76.87 40.31 84.26 36.85 87.31C33.22 90.51 31.07 94.47 31.07 98.75C31.07 99.57 31.16 99.91 31.31 100.71H89.7C89.85 99.91 89.94 99.58 89.94 98.75H89.93Z" fill="white"/>
<path id="Vector_3" d="M213 98.75C213 94.46 210.81 90.5 207.12 87.31C203.59 84.26 203.64 76.86 207.2 73.89C210.85 70.84 213 67.07 213 62.99C213 59.52 211.44 56.27 208.73 53.5C205.67 50.38 205.67 43.76 208.73 40.64C211.44 37.87 213 34.62 213 31.15C213 28.1 211.79 25.22 209.66 22.68C207.06 19.59 207 13.76 209.58 10.62C211.77 7.95 213.01 4.91 213.01 1.68C213.01 1.11 212.96 0.56 212.89 0H153.21C153.14 0.55 153.09 1.11 153.09 1.68C153.09 4.91 154.33 7.95 156.52 10.62C159.09 13.76 159.04 19.59 156.44 22.68C154.3 25.21 153.1 28.09 153.1 31.15C153.1 34.62 154.66 37.87 157.37 40.64C160.43 43.76 160.43 50.38 157.37 53.5C154.66 56.27 153.1 59.52 153.1 62.99C153.1 67.07 155.25 70.84 158.9 73.89C162.46 76.87 162.5 84.26 158.98 87.31C155.29 90.51 153.1 94.47 153.1 98.75C153.1 99.57 153.19 100.38 153.35 101.18H212.78C212.94 100.38 213.03 99.57 213.03 98.75H213Z" fill="white"/>
<path id="Vector_4" d="M359.43 98.75C359.43 94.46 357.34 90.5 353.81 87.31C350.44 84.26 350.48 76.86 353.89 73.89C357.38 70.84 359.44 67.07 359.44 62.99C359.44 59.52 357.95 56.27 355.35 53.5C352.43 50.38 352.43 43.76 355.35 40.64C357.94 37.87 359.44 34.62 359.44 31.15C359.44 28.1 358.29 25.22 356.24 22.68C353.75 19.59 353.7 13.76 356.16 10.62C358.25 7.95 359.44 4.91 359.44 1.68C359.44 1.11 359.4 0.56 359.32 0H302.23C302.16 0.55 302.11 1.11 302.11 1.68C302.11 4.91 303.29 7.95 305.39 10.62C307.85 13.76 307.8 19.59 305.31 22.68C303.27 25.21 302.11 28.09 302.11 31.15C302.11 34.62 303.6 37.87 306.2 40.64C309.12 43.76 309.12 50.38 306.2 53.5C303.61 56.27 302.11 59.52 302.11 62.99C302.11 67.07 304.17 70.84 307.66 73.89C311.06 76.87 311.11 84.26 307.74 87.31C304.21 90.51 302.11 94.47 302.11 98.75C302.11 99.57 302.2 100.38 302.35 101.18H359.2C359.35 100.38 359.44 99.57 359.44 98.75H359.43Z" fill="white"/>
<path id="Vector_5" d="M447.53 97.79C447.53 97.79 451.77 72.66 468.14 73.08C472.23 73.22 472.75 71.24 472.85 70.12C472.95 69 472.8 66.87 468.29 65.88C463.78 64.89 458.27 60.42 459.4 53.74C460.53 47.06 465.75 45.83 471.26 46.54C476.77 47.25 478.18 45.25 478.46 43.86C478.75 42.41 478.15 39.79 472.95 39.91C468.71 40.01 461.33 38.92 461.19 31.72C461.19 27.86 463.4 24.96 468.46 25.24C473.52 25.52 479.54 23.82 479.35 19.58C479.16 15.34 467.77 15.06 467.59 7.72C467.31 -2.16 486.49 0.379998 486.49 0.379998V100.7L447.54 100.76V97.8L447.53 97.79Z" fill="white"/>
<path id="Vector_6" d="M108.56 8.62L108.85 9.84L109.92 9.19L109.27 10.26L110.49 10.56L109.27 10.85L109.92 11.92L108.85 11.27L108.56 12.49L108.26 11.27L107.19 11.92L107.84 10.85L106.62 10.56L107.84 10.26L107.19 9.19L108.26 9.84L108.56 8.62Z" fill="#002BFF"/>
<path id="Vector_7" d="M26.67 77.74C28.6085 77.74 30.18 76.1685 30.18 74.23C30.18 72.2915 28.6085 70.72 26.67 70.72C24.7315 70.72 23.16 72.2915 23.16 74.23C23.16 76.1685 24.7315 77.74 26.67 77.74Z" fill="#002BFF"/>
<path id="Vector_8" d="M9.94001 85.1C11.387 85.1 12.56 83.927 12.56 82.48C12.56 81.033 11.387 79.86 9.94001 79.86C8.49302 79.86 7.32001 81.033 7.32001 82.48C7.32001 83.927 8.49302 85.1 9.94001 85.1Z" fill="#002BFF"/>
<path id="Vector_9" d="M105.37 50.53C106.32 50.53 107.09 49.7599 107.09 48.81C107.09 47.8601 106.32 47.09 105.37 47.09C104.42 47.09 103.65 47.8601 103.65 48.81C103.65 49.7599 104.42 50.53 105.37 50.53Z" fill="#002BFF"/>
<path id="Vector_10" d="M105.6 27.74C107.152 27.74 108.41 26.4819 108.41 24.93C108.41 23.3781 107.152 22.12 105.6 22.12C104.048 22.12 102.79 23.3781 102.79 24.93C102.79 26.4819 104.048 27.74 105.6 27.74Z" fill="#002BFF"/>
<path id="Vector_11" d="M16.38 15.62C17.1587 15.62 17.79 14.9887 17.79 14.21C17.79 13.4313 17.1587 12.8 16.38 12.8C15.6013 12.8 14.97 13.4313 14.97 14.21C14.97 14.9887 15.6013 15.62 16.38 15.62Z" fill="#002BFF"/>
<path id="Vector_12" d="M6.18 28.51C6.95873 28.51 7.59 27.8787 7.59 27.1C7.59 26.3213 6.95873 25.69 6.18 25.69C5.40128 25.69 4.77 26.3213 4.77 27.1C4.77 27.8787 5.40128 28.51 6.18 28.51Z" fill="#002BFF"/>
<path id="Vector_13" d="M138.77 10.54L139.29 13.57L141.25 11.2L140.17 14.09L143.06 13.01L140.68 14.97L143.72 15.48L140.68 16L143.06 17.95L140.17 16.88L141.25 19.76L139.29 17.39L138.77 20.43L138.26 17.39L136.3 19.76L137.38 16.88L134.49 17.95L136.87 16L133.83 15.48L136.87 14.97L134.49 13.01L137.38 14.09L136.3 11.2L138.26 13.57L138.77 10.54Z" fill="#002BFF"/>
<path id="Vector_14" d="M288.33 41.24L288.85 44.27L290.81 41.9L289.73 44.79L292.62 43.71L290.24 45.67L293.28 46.18L290.24 46.7L292.62 48.66L289.73 47.58L290.81 50.46L288.85 48.09L288.33 51.13L287.82 48.09L285.86 50.46L286.94 47.58L284.05 48.66L286.43 46.7L283.39 46.18L286.43 45.67L284.05 43.71L286.94 44.79L285.86 41.9L287.82 44.27L288.33 41.24Z" fill="#002BFF"/>
<path id="Vector_15" d="M459.99 2.65L460.5 5.69L462.46 3.32L461.39 6.2L464.27 5.13L461.9 7.08L464.94 7.6L461.9 8.11L464.27 10.07L461.39 8.99L462.46 11.88L460.5 9.51L459.99 12.54L459.48 9.51L457.52 11.88L458.6 8.99L455.71 10.07L458.08 8.11L455.05 7.6L458.08 7.08L455.71 5.13L458.6 6.2L457.52 3.32L459.48 5.69L459.99 2.65Z" fill="#002BFF"/>
<path id="Vector_16" d="M437.65 94.9C439.589 94.9 441.16 93.3285 441.16 91.39C441.16 89.4515 439.589 87.88 437.65 87.88C435.711 87.88 434.14 89.4515 434.14 91.39C434.14 93.3285 435.711 94.9 437.65 94.9Z" fill="#002BFF"/>
<path id="Vector_17" d="M372.12 68.94C374.059 68.94 375.63 67.3685 375.63 65.43C375.63 63.4915 374.059 61.92 372.12 61.92C370.181 61.92 368.61 63.4915 368.61 65.43C368.61 67.3685 370.181 68.94 372.12 68.94Z" fill="#002BFF"/>
<path id="Vector_18" d="M272.64 75.35C275.302 75.35 277.46 73.192 277.46 70.53C277.46 67.868 275.302 65.71 272.64 65.71C269.978 65.71 267.82 67.868 267.82 70.53C267.82 73.192 269.978 75.35 272.64 75.35Z" fill="#002BFF"/>
<path id="Vector_19" d="M442 36.76C444.706 36.76 446.9 34.5662 446.9 31.86C446.9 29.1538 444.706 26.96 442 26.96C439.294 26.96 437.1 29.1538 437.1 31.86C437.1 34.5662 439.294 36.76 442 36.76Z" fill="#002BFF"/>
<path id="Vector_20" d="M438.78 16.08C440.227 16.08 441.4 14.907 441.4 13.46C441.4 12.013 440.227 10.84 438.78 10.84C437.333 10.84 436.16 12.013 436.16 13.46C436.16 14.907 437.333 16.08 438.78 16.08Z" fill="#002BFF"/>
<path id="Vector_21" d="M238.29 62.05C239.737 62.05 240.91 60.877 240.91 59.43C240.91 57.983 239.737 56.81 238.29 56.81C236.843 56.81 235.67 57.983 235.67 59.43C235.67 60.877 236.843 62.05 238.29 62.05Z" fill="#002BFF"/>
<path id="Vector_22" d="M286.07 89.3C287.517 89.3 288.69 88.127 288.69 86.68C288.69 85.233 287.517 84.06 286.07 84.06C284.623 84.06 283.45 85.233 283.45 86.68C283.45 88.127 284.623 89.3 286.07 89.3Z" fill="#002BFF"/>
<path id="Vector_23" d="M107.82 85.35C109.267 85.35 110.44 84.177 110.44 82.73C110.44 81.283 109.267 80.11 107.82 80.11C106.373 80.11 105.2 81.283 105.2 82.73C105.2 84.177 106.373 85.35 107.82 85.35Z" fill="#002BFF"/>
<path id="Vector_24" d="M412.57 22.67C413.294 22.67 413.88 22.0835 413.88 21.36C413.88 20.6365 413.294 20.05 412.57 20.05C411.847 20.05 411.26 20.6365 411.26 21.36C411.26 22.0835 411.847 22.67 412.57 22.67Z" fill="#002BFF"/>
<path id="Vector_25" d="M379.26 37.54C380.707 37.54 381.88 36.367 381.88 34.92C381.88 33.473 380.707 32.3 379.26 32.3C377.813 32.3 376.64 33.473 376.64 34.92C376.64 36.367 377.813 37.54 379.26 37.54Z" fill="#002BFF"/>
<path id="Vector_26" d="M256.75 45.56L257.05 46.78L258.12 46.13L257.47 47.2L258.69 47.5L257.47 47.79L258.12 48.86L257.05 48.21L256.75 49.43L256.45 48.21L255.38 48.86L256.04 47.79L254.82 47.5L256.04 47.2L255.38 46.13L256.45 46.78L256.75 45.56Z" fill="#002BFF"/>
</g>
<defs>
<clipPath id="clip0_2_21">
<rect width="486.48" height="101.18" fill="white"/>
</clipPath>
</defs>
</svg>

